<svg id="medplus_logo" xmlns="http://www.w3.org/2000/svg" width="132.662" height="46.5" viewBox="0 0 132.662 46.5">
  <path id="Path_1058" data-name="Path 1058" d="M27.756,16.83H141.906a9.3,9.3,0,0,1,9.256,9.3v27.9a9.3,9.3,0,0,1-9.256,9.3H27.756a9.309,9.309,0,0,1-9.256-9.3v-27.9a9.309,9.309,0,0,1,9.256-9.3Z" transform="translate(-18.5 -16.83)" fill="#c4161c" fill-rule="evenodd"/>
  <path id="Path_2441" data-name="Path 2441" d="M1.975,0H15.5a1.975,1.975,0,0,1,1.975,1.975V15.5A1.975,1.975,0,0,1,15.5,17.475H1.975A1.975,1.975,0,0,1,0,15.5V1.975A1.975,1.975,0,0,1,1.975,0Z" transform="translate(103.974 14.651)" fill="#fff"/>
  <path id="Path_1059" data-name="Path 1059" d="M177.248,25.9v5.5h-5.5v3.84h5.5v5.443h3.9V35.239h5.5V31.4h-5.5V25.9Z" transform="translate(-66.364 -9.905)" fill="#33b44b" fill-rule="evenodd"/>
  <path id="Path_1060" data-name="Path 1060" d="M49.868,57.682h3.618L52.6,39.671H47.711l-1.732,7.015c-.567,1.849-1.128,4.007-1.566,5.911h-.1c-.364-1.929-.857-3.982-1.393-5.862l-1.6-7.095H36.344L35.29,57.682h3.446l.321-6.257c.1-2.053.2-4.6.271-6.824h.049c.413,2.176.955,4.5,1.492,6.46l1.757,6.355h2.916l2-6.429c.616-1.936,1.319-4.284,1.849-6.386h.049c0,2.422.074,4.8.148,6.78Z" transform="translate(-24.941 -25.55)" fill="#fff" fill-rule="evenodd"/>
  <path id="Path_1061" data-name="Path 1061" d="M169.78,60.757a8.371,8.371,0,0,0,3.859.863c3.427,0,5.165-1.646,5.165-3.9,0-1.732-.955-2.9-3.23-3.661-1.467-.518-1.936-.807-1.936-1.393s.518-.955,1.424-.955a6.337,6.337,0,0,1,2.589.66l.616-2.546a7.9,7.9,0,0,0-3.347-.709c-2.959,0-4.87,1.683-4.87,3.939,0,1.393.931,2.761,3.427,3.569,1.368.462,1.732.758,1.732,1.393s-.462.974-1.59.974a7.212,7.212,0,0,1-3.2-.875Z" transform="translate(-76.892 -29.181)" fill="#fff" fill-rule="evenodd"/>
  <path id="Path_1062" data-name="Path 1062" d="M159.046,49.52h-3.7v7.113a2.065,2.065,0,0,1-2.009,2.1c-1.319,0-1.849-1.054-1.849-2.786V49.52h-3.7v7.015c0,3.7,1.763,5.215,4.2,5.215a4.265,4.265,0,0,0,3.742-1.96h.074l.173,1.683h3.23c-.056-1-.1-2.268-.1-3.834Z" transform="translate(-68.41 -29.334)" fill="#fff" fill-rule="evenodd"/>
  <rect id="Rectangle_2063" data-name="Rectangle 2063" width="3.717" height="17.358" transform="translate(72.705 14.781)" fill="#fff"/>
  <path id="Path_1063" data-name="Path 1063" d="M114.12,57.65h3.7V50.512a6.356,6.356,0,0,0,1.27.1,7.8,7.8,0,0,0,5.381-1.738,5.166,5.166,0,0,0,1.492-3.908,4.722,4.722,0,0,0-1.738-3.8c-1.1-.906-2.768-1.344-5.067-1.344a30.412,30.412,0,0,0-5.036.339Z" transform="translate(-55.413 -25.617)" fill="#fff" fill-rule="evenodd"/>
  <path id="Path_1064" data-name="Path 1064" d="M120.11,45.321a6.718,6.718,0,0,1,1.541-.123c1.886,0,2.909.906,2.909,2.422,0,1.658-1.233,2.669-3.2,2.669a5.622,5.622,0,0,1-1.233-.1Z" transform="translate(-57.712 -27.685)" fill="#c4161c" fill-rule="evenodd"/>
  <path id="Path_1065" data-name="Path 1065" d="M89.741,52.807h0a4.93,4.93,0,0,1-.074.832,2.207,2.207,0,0,1-2.176,1.781c-1.541,0-2.546-1.27-2.546-3.273,0-1.88.857-3.4,2.564-3.4a2.219,2.219,0,0,1,2.176,1.812,3.168,3.168,0,0,1,.049.684v1.566Zm0-12.057h0v6.478h-.055a3.7,3.7,0,0,0-3.156-1.344c-2.86,0-5.381,2.349-5.357,6.361,0,3.7,2.275,6.164,5.116,6.164A4.167,4.167,0,0,0,90.024,56.4H90.1l.148,1.732h3.3c-.049-.8-.1-2.2-.1-3.563V40.75ZM71.81,50.767h0a2.461,2.461,0,0,1,2.324-2.422,2.164,2.164,0,0,1,2.077,2.422Zm7.73,2.564a10.445,10.445,0,0,0,.117-1.492c0-2.959-1.467-5.967-5.326-5.967-4.136,0-6.041,3.353-6.041,6.386,0,3.76,2.324,6.115,6.38,6.115a11.324,11.324,0,0,0,4.315-.764l-.493-2.527a9.782,9.782,0,0,1-3.3.518c-1.732,0-3.248-.734-3.372-2.3Z" transform="translate(-37.736 -25.975)" fill="#fff" fill-rule="evenodd"/>
</svg>
