<svg xmlns="http://www.w3.org/2000/svg" width="179" height="39" viewBox="0 0 179 39">
  <g id="MedPlus-HRMS" transform="translate(-1341 -903)">
    <g id="MedPlus" transform="translate(964.646)">
      <path id="Path_1058" data-name="Path 1058" d="M26.244,16.83h95.511a7.793,7.793,0,0,1,7.744,7.8v23.4a7.793,7.793,0,0,1-7.744,7.8H26.244a7.8,7.8,0,0,1-7.744-7.8v-23.4a7.8,7.8,0,0,1,7.744-7.8Z" transform="translate(357.854 886.17)" fill="#c4161c" fill-rule="evenodd"/>
      <g id="Group_28123" data-name="Group 28123" transform="translate(385.353 914.822)">
        <path id="Path_2441" data-name="Path 2441" d="M1.647,0H12.922a1.647,1.647,0,0,1,1.647,1.647V12.922a1.647,1.647,0,0,1-1.647,1.647H1.647A1.647,1.647,0,0,1,0,12.922V1.647A1.647,1.647,0,0,1,1.647,0Z" transform="translate(78.056 0.468)" fill="#fff"/>
        <path id="Path_1059" data-name="Path 1059" d="M176.334,25.9v4.584H171.75v3.2h4.584v4.538h3.253V33.686h4.584v-3.2h-4.584V25.9Z" transform="translate(-92.517 -24.312)" fill="#33b44b" fill-rule="evenodd"/>
        <path id="Path_1060" data-name="Path 1060" d="M47.444,54.682H50.46l-.735-15.016h-4.08L44.2,45.514c-.473,1.542-.94,3.34-1.305,4.928h-.082c-.3-1.609-.714-3.32-1.161-4.887L40.316,39.64H36.169L35.29,54.682h2.873l.267-5.216c.082-1.711.164-3.834.226-5.689H38.7c.344,1.814.8,3.752,1.244,5.386l1.465,5.3h2.431l1.67-5.36c.514-1.614,1.1-3.572,1.542-5.324h.041c0,2.02.062,4,.123,5.653Z" transform="translate(-35.29 -39.64)" fill="#fff" fill-rule="evenodd"/>
        <path id="Path_1061" data-name="Path 1061" d="M169.78,58.822a6.979,6.979,0,0,0,3.217.719c2.857,0,4.307-1.372,4.307-3.248,0-1.444-.8-2.42-2.693-3.053C173.388,52.81,173,52.568,173,52.08s.432-.8,1.187-.8a5.284,5.284,0,0,1,2.158.55l.514-2.122a6.583,6.583,0,0,0-2.79-.591c-2.467,0-4.06,1.4-4.06,3.284,0,1.161.776,2.3,2.857,2.976,1.141.385,1.444.632,1.444,1.161s-.385.812-1.326.812a6.012,6.012,0,0,1-2.667-.73Z" transform="translate(-100.967 -44.243)" fill="#fff" fill-rule="evenodd"/>
        <path id="Path_1062" data-name="Path 1062" d="M157.174,49.52H154.09v5.93a1.722,1.722,0,0,1-1.675,1.752c-1.1,0-1.542-.879-1.542-2.323V49.52H147.79v5.848c0,3.083,1.47,4.348,3.5,4.348a3.556,3.556,0,0,0,3.119-1.634h.062l.144,1.4h2.693c-.046-.833-.082-1.891-.082-3.2Z" transform="translate(-90.238 -44.438)" fill="#fff" fill-rule="evenodd"/>
        <rect id="Rectangle_2063" data-name="Rectangle 2063" width="3.099" height="14.472" transform="translate(51.986 0.576)" fill="#fff"/>
        <path id="Path_1063" data-name="Path 1063" d="M114.12,54.684H117.2V48.733a5.3,5.3,0,0,0,1.059.082,6.5,6.5,0,0,0,4.486-1.449,4.307,4.307,0,0,0,1.244-3.258,3.937,3.937,0,0,0-1.449-3.171,6.537,6.537,0,0,0-4.224-1.12,25.356,25.356,0,0,0-4.2.283Z" transform="translate(-73.804 -39.724)" fill="#fff" fill-rule="evenodd"/>
        <path id="Path_1064" data-name="Path 1064" d="M120.11,45.3a5.6,5.6,0,0,1,1.285-.1c1.573,0,2.426.755,2.426,2.02,0,1.382-1.028,2.225-2.667,2.225a4.687,4.687,0,0,1-1.028-.087Z" transform="translate(-76.716 -42.343)" fill="#c4161c" fill-rule="evenodd"/>
        <path id="Path_1065" data-name="Path 1065" d="M86.174,50.8h0a4.11,4.11,0,0,1-.062.694A1.84,1.84,0,0,1,84.3,52.981c-1.285,0-2.122-1.059-2.122-2.729,0-1.567.714-2.837,2.138-2.837a1.85,1.85,0,0,1,1.814,1.511,2.642,2.642,0,0,1,.041.57V50.8Zm0-10.052h0v5.4h-.046a3.082,3.082,0,0,0-2.631-1.12c-2.385,0-4.486,1.958-4.466,5.3,0,3.083,1.9,5.139,4.265,5.139A3.474,3.474,0,0,0,86.41,53.8h.062l.123,1.444h2.749c-.041-.668-.082-1.835-.082-2.97V40.75ZM71.224,49.1h0a2.052,2.052,0,0,1,1.937-2.02,1.8,1.8,0,0,1,1.732,2.02Zm6.444,2.138a8.707,8.707,0,0,0,.1-1.244c0-2.467-1.223-4.975-4.44-4.975-3.448,0-5.036,2.8-5.036,5.324,0,3.135,1.937,5.1,5.319,5.1a9.441,9.441,0,0,0,3.6-.637L76.8,52.7a8.156,8.156,0,0,1-2.755.432c-1.444,0-2.708-.612-2.811-1.917Z" transform="translate(-51.445 -40.179)" fill="#fff" fill-rule="evenodd"/>
      </g>
    </g>
    <path id="HRMS" d="M1.32-13.463V1.084H4.7V-5h5.547V1.084h3.359V-13.463H10.248v5.59H4.7v-5.59ZM17.651,1.084h3.337V-4.635h1.017c1.37.022,2.011.518,2.409,2.331a17.892,17.892,0,0,0,1.039,3.388H28.9c-.287-.561-.751-2.46-1.215-4.1A3.677,3.677,0,0,0,25.7-5.736V-5.8a3.871,3.871,0,0,0,2.63-3.583,3.657,3.657,0,0,0-1.37-3.043c-1.061-.82-2.608-1.144-4.818-1.144a30.292,30.292,0,0,0-4.486.3Zm3.337-12.108a8.6,8.6,0,0,1,1.525-.108c1.547.022,2.475.691,2.475,2.029,0,1.273-.994,2.094-2.674,2.094H20.989ZM44.679,1.084h3.293l-.818-14.547h-4.4L41.165-8.628c-.486,1.619-.994,3.54-1.414,5.223h-.066c-.331-1.705-.8-3.518-1.26-5.2l-1.459-4.856H32.48L31.53,1.084h3.116l.265-5.525c.11-1.813.177-4.058.265-6.022h.044c.354,1.9.862,3.971,1.348,5.676L38.16.847h2.63L42.6-4.829c.575-1.705,1.193-3.777,1.657-5.633h.066c0,2.115.066,4.23.133,5.978ZM51.088.415a9.943,9.943,0,0,0,4.221.885C59.4,1.3,61.32-.772,61.32-3.211c0-2.05-1.238-3.388-3.867-4.338C55.53-8.261,54.69-8.671,54.69-9.6c0-.755.707-1.4,2.166-1.4a7.219,7.219,0,0,1,3.116.691l.751-2.655a9.313,9.313,0,0,0-3.8-.734c-3.514,0-5.635,1.9-5.635,4.381,0,2.115,1.613,3.453,4.088,4.295,1.79.626,2.5,1.144,2.5,2.05,0,.95-.818,1.576-2.365,1.576A8.758,8.758,0,0,1,51.773-2.3Z" transform="translate(1458.68 928.7)" fill="#fff"/>
  </g>
</svg>
